<svg width="67" height="81" viewBox="0 0 67 81" fill="none" xmlns="http://www.w3.org/2000/svg">
<path d="M66 70.09C59.74 74.54 52.53 77.74 44.76 79.31C44.32 79.4 43.88 79.48 43.43 79.57C42.65 79.71 41.85 79.83 41.06 79.93C40.88 79.96 40.7 79.98 40.53 80C40.17 80.05 39.82 80.09 39.47 80.12C39.28 80.14 39.08 80.16 38.88 80.18C38.39 80.23 37.89 80.27 37.39 80.3C37.15 80.31 36.92 80.33 36.68 80.34C36.62 80.35 36.56 80.35 36.51 80.35C36.16 80.36 35.81 80.38 35.45 80.39C34.37 80.42 33.29 80.42 32.19 80.4C32.11 80.4 32.03 80.39 31.95 80.39C31.59 80.38 31.24 80.36 30.89 80.35C30.83 80.34 30.77 80.34 30.72 80.34C30.48 80.33 30.25 80.31 30.01 80.3C29.51 80.27 29.01 80.23 28.52 80.18C28.32 80.16 28.12 80.14 27.93 80.12C27.57 80.09 27.22 80.05 26.87 80C26.69 79.98 26.51 79.96 26.34 79.93C25.54 79.82 24.75 79.7 23.97 79.57C23.52 79.48 23.08 79.41 22.64 79.31C14.87 77.74 7.66001 74.54 1.40001 70.09C0.120007 68.81 0.0700169 66.66 1.41002 65.31L17.65 48.86C18.05 48.45 18.67 48.39 19.15 48.68C22.49 50.68 26.27 52.01 30.31 52.49C30.36 52.5 30.42 52.5 30.47 52.51C30.67 52.54 30.88 52.56 31.08 52.57C31.1 52.58 31.13 52.58 31.15 52.58C31.54 52.62 31.93 52.65 32.32 52.66C32.62 52.68 32.93 52.69 33.23 52.69C33.84 52.7 34.45 52.69 35.05 52.66C35.45 52.65 35.83 52.62 36.22 52.58C36.25 52.58 36.27 52.58 36.29 52.57C36.49 52.56 36.7 52.54 36.9 52.51C36.95 52.5 37.01 52.5 37.06 52.49C41.1 52.02 44.88 50.68 48.22 48.68C48.71 48.39 49.33 48.45 49.72 48.86L65.96 65.31C67.32 66.66 67.28 68.81 66 70.09Z" fill="#FF5E01"/>
<path d="M47.7267 34.4153C53.2643 26.6697 51.4743 15.9014 43.7287 10.3638C35.983 4.82615 25.2148 6.61609 19.6772 14.3617C14.1395 22.1074 15.9295 32.8756 23.6751 38.4133C31.4208 43.9509 42.189 42.161 47.7267 34.4153Z" fill="#FF5E01"/>
<path d="M48.95 24.02C49.33 24.36 49.88 24.51 50.07 24.11C50.27 23.72 50.27 23.05 50.06 22.66C49.85 22.25 49.32 22.43 48.96 22.74C48.36 18.77 45.44 16.87 42.7 16.67C41.3 16.57 39.98 16.88 38.77 17.62C36.93 18.73 35.91 20.4 35.55 22.4C34.28 22.41 33.08 22.4 31.86 22.41C30.71 18.54 28.25 16.48 24.85 16.67C21.91 16.83 19.04 18.8 18.43 22.73C18.04 22.43 17.52 22.27 17.29 22.73C17.11 23.1 17.11 23.72 17.3 24.09C17.53 24.54 18.03 24.33 18.42 24.08C18.47 24.31 18.52 24.49 18.56 24.66C19.2 27.73 21.74 29.97 24.7 30.11C27.93 30.25 30.67 28.35 31.6 25.29C31.98 24.04 32.04 23.98 33.39 23.94C33.85 23.93 34.31 24.01 34.78 24.01C35.38 24 35.57 24.3 35.69 24.86C36.7 29.44 41.95 31.59 45.88 29.03C47.68 27.85 48.66 26.15 48.95 24.02ZM25.07 29.24C21.65 29.16 19.23 26.33 19.32 23.17C19.4 20.11 22.09 17.48 25.2 17.52C28.46 17.56 31.03 20.19 31 23.42C30.96 26.7 28.32 29.32 25.07 29.24ZM42.26 29.25C39 29.24 36.39 26.62 36.4 23.35C36.41 20.12 39.04 17.5 42.26 17.51C45.52 17.53 48.08 20.19 48.07 23.53C48.06 26.62 45.38 29.25 42.26 29.25Z" fill="#FFD208"/>
</svg>
