<svg width="68" height="86" viewBox="0 0 68 86" fill="none" xmlns="http://www.w3.org/2000/svg">
<path d="M66.51 75.09C60.25 79.54 53.04 82.74 45.27 84.31C44.83 84.4 44.39 84.48 43.94 84.57C43.16 84.71 42.36 84.83 41.57 84.93C41.39 84.96 41.21 84.98 41.04 85C40.68 85.05 40.33 85.09 39.98 85.12C39.79 85.14 39.59 85.16 39.39 85.18C38.9 85.23 38.4 85.27 37.9 85.3C37.66 85.31 37.43 85.33 37.19 85.34C37.13 85.35 37.07 85.35 37.02 85.35C36.67 85.36 36.32 85.38 35.96 85.39C34.88 85.42 33.8 85.42 32.7 85.4C32.62 85.4 32.54 85.39 32.46 85.39C32.1 85.38 31.75 85.36 31.4 85.35C31.34 85.34 31.28 85.34 31.23 85.34C30.99 85.33 30.76 85.31 30.52 85.3C30.02 85.27 29.52 85.23 29.03 85.18C28.83 85.16 28.63 85.14 28.44 85.12C28.08 85.09 27.73 85.05 27.38 85C27.2 84.98 27.02 84.96 26.85 84.93C26.05 84.82 25.26 84.7 24.48 84.57C24.03 84.48 23.59 84.41 23.15 84.31C15.38 82.74 8.17001 79.54 1.91001 75.09C0.630009 73.81 0.580004 71.66 1.92 70.31L18.16 53.86C18.56 53.45 19.18 53.39 19.66 53.68C23 55.68 26.78 57.01 30.82 57.49C30.87 57.5 30.93 57.5 30.98 57.51C31.18 57.54 31.39 57.56 31.59 57.57C31.61 57.58 31.64 57.58 31.66 57.58C32.05 57.62 32.44 57.65 32.83 57.66C33.13 57.68 33.44 57.69 33.74 57.69C34.35 57.7 34.96 57.69 35.56 57.66C35.96 57.65 36.34 57.62 36.73 57.58C36.76 57.58 36.78 57.58 36.8 57.57C37 57.56 37.21 57.54 37.41 57.51C37.46 57.5 37.52 57.5 37.57 57.49C41.61 57.02 45.39 55.68 48.73 53.68C49.22 53.39 49.84 53.45 50.23 53.86L66.47 70.31C67.83 71.66 67.79 73.81 66.51 75.09Z" fill="#FF5E01"/>
<path d="M48.2358 39.4081C53.7735 31.6625 51.9835 20.8942 44.2378 15.3566C36.4922 9.81893 25.724 11.6089 20.1863 19.3545C14.6487 27.1002 16.4386 37.8684 24.1843 43.4061C31.9299 48.9437 42.6982 47.1538 48.2358 39.4081Z" fill="#FF5E01"/>
<path d="M39.87 11.22C40.55 9.70998 41.2 8.31998 41.81 6.90998C42.46 5.39998 42.98 5.24999 44.32 6.16999C48.07 8.74999 50.07 12.33 50.48 16.84C50.54 17.54 50.77 18.1 51.36 18.57C52.34 19.36 52.49 20.52 52.48 21.7C52.47 24.25 52.71 23.99 50.21 23.99C39.3 23.99 28.38 23.99 17.47 23.99C15.96 23.99 15.98 23.98 15.94 22.46C15.89 20.79 15.99 19.21 17.55 18.13C17.94 17.86 17.92 17.28 17.96 16.81C18.37 12.25 20.43 8.66998 24.23 6.09998C25.45 5.27998 25.98 5.42999 26.56 6.72999C27.18 8.13999 27.83 9.53998 28.57 11.16C28.76 10.44 28.52 10.01 28.42 9.59003C28.02 7.85003 27.6 6.11 27.19 4.37C26.96 3.43 27.18 2.76004 28.11 2.28004C32.34 0.100037 36.52 0.119988 40.67 2.47999C41.32 2.84999 41.54 3.33002 41.34 4.08002C40.82 6.07002 40.35 8.08002 39.86 10.08C39.77 10.4 39.63 10.71 39.87 11.22Z" fill="#FFD208"/>
</svg>
