<svg width="38" height="38" viewBox="0 0 38 38" fill="none" xmlns="http://www.w3.org/2000/svg">
<g opacity="0.75">
<path d="M37.54 18.15C37.54 18.11 37.54 18.07 37.54 18.03C37.54 17.94 37.54 17.86 37.53 17.77C37.53 17.68 37.52 17.6 37.52 17.51C37.52 17.46 37.52 17.4 37.51 17.35C37.5 17.23 37.49 17.11 37.48 16.99C36.7 7.77999 29.12 0.489999 19.71 0.0299988C19.55 0.0199988 19.4 0.0199792 19.24 0.00997925C19.13 0.00997925 19.02 3.54532e-10 18.9 3.54532e-10H18.76C18.61 3.54532e-10 18.46 -2.07517e-05 18.31 0.00997925C18.15 0.00997925 17.99 0.0199988 17.84 0.0299988C8.6 0.509999 0.87 7.90999 0.0699997 16.99C0.0599997 17.11 0.0500009 17.23 0.0400009 17.35C0.0300009 17.4 0.0299988 17.46 0.0299988 17.51C0.0199988 17.6 0.0200005 17.68 0.0200005 17.77C0.0200005 17.86 0.00999832 17.94 0.00999832 18.03C0.00999832 18.07 0.00999832 18.11 0.00999832 18.15C0.00999832 18.23 0 18.31 0 18.39V18.56C0 18.94 0.0100009 19.31 0.0400009 19.69C0.0500009 19.8 0.0500014 19.91 0.0600014 20.03C0.0700014 20.13 0.0800018 20.23 0.0800018 20.33C0.0900018 20.47 0.109999 20.6 0.119999 20.73C0.159999 21.03 0.2 21.32 0.25 21.62C0.25 21.63 0.249998 21.64 0.259998 21.65C0.279998 21.79 0.31 21.93 0.34 22.07C0.87 24.79 1.99 27.3 3.59 29.46C3.63 29.52 3.68 29.57 3.73 29.61C4.17 30.03 4.89 30.03 5.33 29.59L10.76 24.15C10.9 24.01 10.91 23.81 10.81 23.64C10.23 22.76 9.8 21.77 9.55 20.72C9.53 20.65 9.51 20.57 9.5 20.5C9.47 20.36 9.44 20.23 9.42 20.09C9.42 20.07 9.41 20.05 9.41 20.02C9.4 19.95 9.39 19.88 9.38 19.82C9.37 19.74 9.36 19.67 9.35 19.59C9.35 19.56 9.34 19.54 9.34 19.51C9.33 19.43 9.32 19.34 9.32 19.26V19.25C9.31 19.14 9.3 19.02 9.3 18.91C9.3 18.79 9.29 18.68 9.29 18.56C9.29 18.45 9.29 18.34 9.3 18.22C9.3 18.07 9.31 17.91 9.33 17.76C9.73 13.38 13.61 9.55999 18.05 9.20999C18.05 9.20999 18.05 9.20999 18.06 9.20999C18.14 9.19999 18.22 9.2 18.3 9.19C18.61 9.17 18.93 9.17 19.25 9.19C19.26 9.19 19.27 9.19 19.28 9.19C19.36 9.19 19.44 9.19999 19.52 9.20999H19.53C24.16 9.55999 27.87 13.19 28.25 17.76C28.26 17.91 28.27 18.06 28.28 18.22V18.23C28.28 18.34 28.29 18.45 28.29 18.57V18.66C28.29 18.75 28.29 18.83 28.28 18.92C28.28 19.03 28.27 19.15 28.26 19.26V19.27C28.25 19.35 28.25 19.44 28.24 19.52C28.24 19.55 28.24 19.57 28.23 19.6C28.22 19.68 28.21 19.75 28.2 19.83C28.19 19.9 28.18 19.97 28.17 20.03C28.17 20.05 28.16 20.08 28.16 20.1C28.14 20.24 28.11 20.37 28.08 20.51C28.06 20.58 28.05 20.66 28.03 20.73C27.17 24.25 24.28 27.03 20.68 27.76C21.75 27.55 22.76 27.16 23.67 26.62C23.83 26.52 24.04 26.54 24.17 26.68L29.61 32.12C30.06 32.57 30.04 33.28 29.61 33.7C31.23 32.57 32.66 31.19 33.84 29.62C35.5 27.42 36.68 24.86 37.22 22.08C37.25 21.94 37.27 21.8 37.3 21.66C37.3 21.65 37.31 21.64 37.31 21.63C37.36 21.34 37.4 21.04 37.44 20.74C37.46 20.61 37.47 20.47 37.48 20.34C37.49 20.24 37.5 20.14 37.5 20.04C37.51 19.93 37.52 19.81 37.52 19.7C37.53 19.47 37.54 19.25 37.55 19.02C37.55 18.98 37.55 18.95 37.55 18.91C37.55 18.8 37.55 18.68 37.55 18.57V18.56C37.54 18.41 37.54 18.28 37.54 18.15ZM20.61 27.75C20.51 27.77 20.4 27.79 20.3 27.81C20.41 27.78 20.51 27.77 20.61 27.75ZM20.3 27.8C20.17 27.82 20.03 27.84 19.9 27.86C20.04 27.84 20.17 27.82 20.3 27.8ZM8.11 33.82C9.74 34.93 11.56 35.79 13.52 36.35C11.51 35.77 9.63 34.86 7.95 33.68C8 33.73 8.05 33.78 8.11 33.82ZM13.52 36.35C13.63 36.38 13.74 36.41 13.85 36.44C13.73 36.42 13.63 36.38 13.52 36.35ZM14.3 36.56C14.55 36.62 14.81 36.68 15.07 36.73C14.8 36.68 14.55 36.62 14.3 36.56Z" fill="#BFBFBF"/>
</g>
<path d="M29.59 33.68C27.49 35.15 25.08 36.21 22.48 36.73C22.33 36.76 22.18 36.79 22.03 36.82C21.77 36.87 21.5 36.91 21.23 36.94C21.17 36.95 21.11 36.96 21.05 36.96C20.93 36.98 20.81 36.99 20.69 37C20.63 37.01 20.56 37.01 20.49 37.02C20.32 37.04 20.16 37.05 19.99 37.06C19.91 37.06 19.83 37.07 19.75 37.07C19.73 37.07 19.71 37.07 19.69 37.07C19.57 37.07 19.46 37.08 19.34 37.08C18.98 37.09 18.62 37.09 18.25 37.08C18.22 37.08 18.2 37.08 18.17 37.08C18.05 37.08 17.93 37.07 17.82 37.07C17.8 37.07 17.78 37.07 17.76 37.07C17.68 37.07 17.6 37.06 17.52 37.06C17.35 37.05 17.19 37.04 17.02 37.02C16.95 37.01 16.89 37.01 16.82 37C16.7 36.99 16.58 36.98 16.46 36.96C16.4 36.95 16.34 36.95 16.28 36.94C16.01 36.91 15.75 36.86 15.48 36.82C15.33 36.79 15.18 36.77 15.03 36.73C12.43 36.21 10.01 35.15 7.92001 33.68C7.49001 33.26 7.48001 32.55 7.92001 32.1L13.36 26.66C13.49 26.52 13.7 26.51 13.86 26.6C14.98 27.26 16.24 27.7 17.6 27.86C17.62 27.86 17.64 27.86 17.65 27.87C17.72 27.88 17.79 27.89 17.86 27.89C17.87 27.89 17.88 27.89 17.88 27.89C18.01 27.9 18.14 27.91 18.27 27.92C18.37 27.93 18.47 27.93 18.57 27.93C18.78 27.93 18.98 27.93 19.18 27.92C19.31 27.92 19.44 27.91 19.57 27.89C19.58 27.89 19.59 27.89 19.59 27.89C19.66 27.89 19.73 27.88 19.8 27.87C19.82 27.87 19.84 27.87 19.85 27.86C21.2 27.7 22.47 27.26 23.59 26.6C23.75 26.5 23.96 26.52 24.09 26.66L29.53 32.1C30.03 32.55 30.01 33.26 29.59 33.68Z" fill="white"/>
<path d="M18.77 24.25C21.9567 24.25 24.54 21.698 24.54 18.55C24.54 15.402 21.9567 12.85 18.77 12.85C15.5833 12.85 13 15.402 13 18.55C13 21.698 15.5833 24.25 18.77 24.25Z" fill="white"/>
</svg>
