<svg width="294" height="39" viewBox="0 0 294 39" fill="none" xmlns="http://www.w3.org/2000/svg">
<path d="M50.59 38.02V4.35999H73.14V10.18H57.8V18.11H71.7V23.69H57.8V32.2H73.14V38.02H50.59Z" fill="#FF5E01"/>
<path d="M75.93 38.02V13.78H82.23L82.81 17.67C83.55 16.32 84.59 15.24 85.94 14.42C87.29 13.6 88.92 13.19 90.85 13.19C92.87 13.19 94.57 13.62 95.95 14.49C97.33 15.36 98.38 16.6 99.1 18.22C99.82 19.84 100.18 21.82 100.18 24.16V38.01H93V24.84C93 23.08 92.62 21.71 91.87 20.73C91.12 19.75 89.92 19.26 88.29 19.26C87.33 19.26 86.45 19.49 85.67 19.96C84.88 20.43 84.27 21.09 83.82 21.96C83.37 22.83 83.15 23.87 83.15 25.09V38.02H75.93Z" fill="#FF5E01"/>
<path d="M115.31 38.59C112.81 38.59 110.61 38.04 108.7 36.96C106.79 35.87 105.3 34.38 104.23 32.49C103.16 30.6 102.62 28.44 102.62 26C102.62 23.5 103.16 21.3 104.23 19.39C105.3 17.48 106.79 15.98 108.7 14.87C110.61 13.76 112.81 13.21 115.31 13.21C118.48 13.21 121.15 14.04 123.32 15.71C125.48 17.38 126.85 19.7 127.43 22.68H119.78C119.49 21.65 118.95 20.85 118.15 20.28C117.35 19.7 116.39 19.41 115.27 19.41C114.21 19.41 113.29 19.67 112.5 20.2C111.71 20.73 111.1 21.48 110.65 22.46C110.2 23.44 109.98 24.58 109.98 25.9C109.98 26.89 110.11 27.79 110.36 28.59C110.62 29.39 110.98 30.08 111.44 30.66C111.9 31.24 112.46 31.68 113.1 31.98C113.74 32.28 114.46 32.44 115.26 32.44C116.03 32.44 116.71 32.31 117.3 32.06C117.89 31.8 118.41 31.43 118.84 30.95C119.27 30.47 119.59 29.88 119.78 29.17H127.43C126.85 32.06 125.47 34.35 123.29 36.05C121.12 37.75 118.46 38.59 115.31 38.59Z" fill="#FF5E01"/>
<path d="M141.81 38.59C139.47 38.59 137.37 38.04 135.51 36.96C133.65 35.87 132.18 34.37 131.09 32.46C130 30.55 129.46 28.38 129.46 25.94C129.46 23.44 130 21.24 131.09 19.33C132.18 17.42 133.66 15.92 135.54 14.83C137.42 13.74 139.51 13.2 141.81 13.2C144.18 13.2 146.3 13.75 148.16 14.83C150.02 15.92 151.49 17.42 152.58 19.33C153.67 21.24 154.21 23.43 154.21 25.89C154.21 28.36 153.66 30.55 152.58 32.45C151.49 34.36 150.01 35.86 148.16 36.95C146.3 38.05 144.18 38.59 141.81 38.59ZM141.81 32.34C142.77 32.34 143.63 32.1 144.38 31.62C145.13 31.14 145.73 30.42 146.18 29.46C146.63 28.5 146.85 27.31 146.85 25.9C146.85 24.49 146.63 23.3 146.18 22.34C145.73 21.38 145.14 20.66 144.4 20.18C143.66 19.7 142.81 19.46 141.85 19.46C140.89 19.46 140.03 19.7 139.28 20.18C138.53 20.66 137.93 21.38 137.48 22.34C137.03 23.3 136.81 24.49 136.81 25.9C136.81 27.31 137.03 28.5 137.48 29.46C137.93 30.42 138.53 31.14 139.28 31.62C140.04 32.1 140.88 32.34 141.81 32.34Z" fill="#FF5E01"/>
<path d="M156.91 38.02V13.78H163.21L163.79 17.67C164.53 16.32 165.57 15.24 166.92 14.42C168.27 13.6 169.9 13.19 171.83 13.19C173.85 13.19 175.55 13.62 176.93 14.49C178.31 15.36 179.36 16.6 180.08 18.22C180.8 19.84 181.16 21.82 181.16 24.16V38.01H174V24.84C174 23.08 173.62 21.71 172.87 20.73C172.12 19.75 170.92 19.26 169.29 19.26C168.33 19.26 167.45 19.49 166.67 19.96C165.88 20.43 165.27 21.09 164.82 21.96C164.37 22.83 164.15 23.87 164.15 25.09V38.02H156.91Z" fill="#FF5E01"/>
<path d="M195.62 38.02C193.89 38.02 192.35 37.74 191 37.18C189.65 36.62 188.61 35.7 187.87 34.42C187.13 33.14 186.76 31.39 186.76 29.18V19.8H182.62V13.79H186.76L187.53 6.95999H193.97V13.79H200.17V19.8H193.97V29.27C193.97 30.23 194.19 30.91 194.62 31.31C195.05 31.71 195.8 31.91 196.86 31.91H200.18V38.02H195.62Z" fill="#FF5E01"/>
<path d="M202.88 38.02V13.78H209.28L209.95 18.2C210.59 17.17 211.34 16.29 212.21 15.56C213.08 14.82 214.08 14.25 215.22 13.83C216.36 13.41 217.58 13.2 218.9 13.2V20.85H216.5C215.54 20.85 214.66 20.95 213.88 21.16C213.09 21.37 212.42 21.71 211.86 22.19C211.3 22.67 210.87 23.32 210.56 24.14C210.26 24.96 210.1 25.98 210.1 27.19V38.01H202.88V38.02Z" fill="#FF5E01"/>
<path d="M231.92 38.59C229.42 38.59 227.22 38.07 225.33 37.03C223.44 35.99 221.96 34.53 220.88 32.65C219.81 30.77 219.27 28.62 219.27 26.18C219.27 23.68 219.8 21.45 220.86 19.5C221.92 17.55 223.39 16.01 225.28 14.88C227.17 13.76 229.37 13.2 231.87 13.2C234.31 13.2 236.44 13.73 238.27 14.79C240.1 15.85 241.53 17.28 242.57 19.09C243.61 20.9 244.13 22.99 244.13 25.37C244.13 25.69 244.12 26.05 244.11 26.45C244.09 26.85 244.05 27.26 243.99 27.68H224.42V23.5H236.78C236.72 22.15 236.23 21.07 235.31 20.25C234.4 19.43 233.27 19.02 231.92 19.02C230.89 19.02 229.96 19.26 229.13 19.74C228.3 20.22 227.63 20.94 227.13 21.9C226.63 22.86 226.38 24.08 226.38 25.55V26.99C226.38 28.11 226.6 29.11 227.03 29.97C227.46 30.84 228.09 31.51 228.91 31.99C229.73 32.47 230.7 32.71 231.82 32.71C232.88 32.71 233.75 32.49 234.44 32.06C235.13 31.63 235.67 31.07 236.05 30.4H243.41C242.96 31.94 242.19 33.33 241.1 34.56C240.01 35.79 238.68 36.77 237.11 37.49C235.54 38.23 233.81 38.59 231.92 38.59Z" fill="#FF5E01"/>
<path d="M256.15 38.59C253.91 38.59 251.93 38.16 250.24 37.32C248.54 36.47 247.22 35.21 246.27 33.55C245.32 31.88 244.85 29.85 244.85 27.44H252.01C252.01 28.43 252.16 29.28 252.47 29.99C252.77 30.7 253.22 31.23 253.79 31.6C254.37 31.97 255.09 32.15 255.95 32.15C256.78 32.15 257.47 31.98 258.02 31.65C258.56 31.31 258.97 30.83 259.22 30.18C259.48 29.54 259.6 28.77 259.6 27.87V4.35999H266.81V27.87C266.81 31.36 265.84 34.02 263.9 35.85C261.98 37.68 259.39 38.59 256.15 38.59Z" fill="#0558FF"/>
<path d="M278.61 38.59C276.59 38.59 274.91 38.27 273.59 37.63C272.26 36.99 271.28 36.12 270.66 35.01C270.03 33.9 269.72 32.68 269.72 31.33C269.72 29.89 270.08 28.61 270.8 27.51C271.52 26.4 272.65 25.52 274.19 24.87C275.73 24.21 277.67 23.88 280.01 23.88H285.88C285.88 22.79 285.74 21.89 285.47 21.19C285.2 20.49 284.76 19.96 284.15 19.6C283.54 19.25 282.71 19.07 281.65 19.07C280.53 19.07 279.58 19.29 278.81 19.74C278.04 20.19 277.56 20.89 277.37 21.86H270.45C270.61 20.13 271.18 18.62 272.16 17.34C273.14 16.06 274.44 15.05 276.08 14.31C277.71 13.57 279.59 13.2 281.71 13.2C284.02 13.2 286.02 13.58 287.72 14.33C289.42 15.08 290.74 16.18 291.69 17.62C292.64 19.06 293.11 20.86 293.11 23.01V38.01H287.1L286.23 34.5C285.88 35.11 285.46 35.66 284.98 36.16C284.5 36.66 283.94 37.09 283.3 37.46C282.66 37.83 281.95 38.11 281.18 38.3C280.39 38.5 279.54 38.59 278.61 38.59ZM276.21 11.72L275.58 7.05999L286.4 1.04999L287.17 6.43999L276.21 11.72ZM280.39 33.11C281.16 33.11 281.83 32.98 282.41 32.73C282.99 32.47 283.48 32.12 283.9 31.67C284.32 31.22 284.66 30.7 284.93 30.11C285.2 29.52 285.4 28.87 285.53 28.16V28.11H280.87C280.07 28.11 279.4 28.21 278.87 28.42C278.34 28.63 277.95 28.92 277.69 29.31C277.43 29.69 277.31 30.14 277.31 30.66C277.31 31.21 277.45 31.66 277.72 32.03C277.99 32.4 278.36 32.67 278.83 32.85C279.29 33.03 279.81 33.11 280.39 33.11Z" fill="#0558FF"/>
<path d="M38.25 19.02C38.25 18.98 38.25 18.94 38.25 18.9C38.25 18.81 38.25 18.73 38.24 18.64C38.24 18.55 38.23 18.47 38.23 18.38C38.23 18.33 38.23 18.27 38.22 18.22C38.21 18.1 38.2 17.98 38.19 17.86C37.41 8.65 29.83 1.36 20.42 0.899998C20.26 0.889998 20.11 0.889997 19.95 0.879997C19.84 0.879997 19.73 0.869995 19.61 0.869995H19.47C19.32 0.869995 19.17 0.869997 19.02 0.879997C18.86 0.879997 18.7 0.889998 18.55 0.899998C9.30999 1.38 1.57999 8.78 0.779991 17.86C0.769991 17.98 0.759992 18.1 0.749992 18.22C0.739992 18.27 0.739994 18.33 0.739994 18.38C0.729994 18.47 0.729992 18.55 0.729992 18.64C0.729992 18.73 0.719994 18.81 0.719994 18.9C0.719994 18.94 0.719994 18.98 0.719994 19.02C0.719994 19.1 0.709991 19.18 0.709991 19.26V19.43C0.709991 19.81 0.719992 20.18 0.749992 20.56C0.759992 20.67 0.759993 20.78 0.769993 20.9C0.779993 21 0.789993 21.1 0.789993 21.2C0.799993 21.34 0.819994 21.47 0.829994 21.6C0.869994 21.9 0.909991 22.19 0.959991 22.49C0.959991 22.5 0.959994 22.51 0.969994 22.52C0.989994 22.66 1.01999 22.8 1.04999 22.94C1.57999 25.66 2.69999 28.17 4.29999 30.33C4.33999 30.39 4.38999 30.44 4.43999 30.48C4.87999 30.9 5.59999 30.9 6.03999 30.46L11.47 25.02C11.61 24.88 11.62 24.68 11.52 24.51C10.94 23.63 10.51 22.64 10.26 21.59C10.24 21.52 10.22 21.44 10.21 21.37C10.18 21.23 10.15 21.1 10.13 20.96C10.13 20.94 10.12 20.92 10.12 20.89C10.11 20.82 10.1 20.75 10.09 20.69C10.08 20.61 10.07 20.54 10.06 20.46C10.06 20.43 10.05 20.41 10.05 20.38C10.04 20.3 10.03 20.21 10.03 20.13V20.12C10.01 20 10.01 19.89 9.99999 19.77C9.99999 19.65 9.98999 19.54 9.98999 19.42C9.98999 19.31 9.98999 19.2 9.99999 19.08C9.99999 18.93 10.01 18.77 10.03 18.62C10.43 14.24 14.31 10.42 18.75 10.07C18.75 10.07 18.75 10.07 18.76 10.07C18.84 10.06 18.92 10.06 19 10.05C19.31 10.03 19.63 10.03 19.95 10.05C19.96 10.05 19.97 10.05 19.98 10.05C20.06 10.05 20.14 10.06 20.22 10.07H20.23C24.86 10.42 28.57 14.05 28.95 18.62C28.96 18.77 28.97 18.92 28.98 19.08V19.09C28.98 19.2 28.99 19.31 28.99 19.43V19.52C28.99 19.61 28.99 19.69 28.98 19.78C28.98 19.89 28.97 20.01 28.96 20.12V20.13C28.95 20.21 28.95 20.3 28.94 20.38C28.94 20.41 28.94 20.43 28.93 20.46C28.92 20.54 28.91 20.61 28.9 20.69C28.89 20.76 28.88 20.83 28.87 20.89C28.87 20.91 28.86 20.94 28.86 20.96C28.84 21.1 28.81 21.23 28.78 21.37C28.76 21.44 28.75 21.52 28.73 21.59C27.87 25.11 24.98 27.89 21.38 28.62C22.45 28.41 23.46 28.02 24.37 27.48C24.53 27.38 24.74 27.4 24.87 27.54L30.31 32.98C30.76 33.43 30.74 34.14 30.31 34.56C31.93 33.43 33.36 32.05 34.54 30.48C36.2 28.28 37.38 25.72 37.92 22.94C37.95 22.8 37.97 22.66 38 22.52C38 22.51 38.01 22.5 38.01 22.49C38.06 22.2 38.1 21.9 38.14 21.6C38.16 21.47 38.17 21.33 38.18 21.2C38.19 21.1 38.2 21 38.2 20.9C38.21 20.79 38.22 20.67 38.22 20.56C38.23 20.33 38.24 20.11 38.25 19.88C38.25 19.84 38.25 19.81 38.25 19.77C38.25 19.66 38.25 19.54 38.25 19.43V19.42C38.26 19.28 38.26 19.15 38.25 19.02ZM21.37 28.61C21.36 28.61 21.35 28.61 21.33 28.62C21.34 28.62 21.36 28.61 21.37 28.61ZM21.33 28.62C21.23 28.64 21.12 28.66 21.02 28.68C21.13 28.66 21.23 28.64 21.33 28.62ZM21.02 28.67C20.89 28.69 20.75 28.71 20.62 28.73C20.76 28.71 20.89 28.7 21.02 28.67ZM8.82999 34.69C10.46 35.8 12.28 36.66 14.24 37.22C12.23 36.64 10.35 35.73 8.66999 34.55C8.71999 34.61 8.76999 34.65 8.82999 34.69ZM14.24 37.23C14.35 37.26 14.46 37.29 14.57 37.32C14.45 37.29 14.34 37.26 14.24 37.23ZM15.01 37.43C15.26 37.49 15.52 37.55 15.78 37.6C15.52 37.55 15.27 37.49 15.01 37.43Z" fill="#0558FF"/>
<path d="M30.31 34.55C28.21 36.02 25.8 37.08 23.2 37.6C23.05 37.63 22.9 37.66 22.75 37.69C22.49 37.74 22.22 37.78 21.95 37.81C21.89 37.82 21.83 37.83 21.77 37.83C21.65 37.85 21.53 37.86 21.41 37.87C21.35 37.88 21.28 37.88 21.21 37.89C21.04 37.91 20.88 37.92 20.71 37.93C20.63 37.93 20.55 37.94 20.47 37.94C20.45 37.94 20.43 37.94 20.41 37.94C20.29 37.94 20.18 37.95 20.06 37.95C19.7 37.96 19.34 37.96 18.97 37.95C18.94 37.95 18.92 37.95 18.89 37.95C18.77 37.95 18.65 37.94 18.54 37.94C18.52 37.94 18.5 37.94 18.48 37.94C18.4 37.94 18.32 37.93 18.24 37.93C18.07 37.92 17.91 37.91 17.74 37.89C17.67 37.88 17.61 37.88 17.54 37.87C17.42 37.86 17.3 37.85 17.18 37.83C17.12 37.82 17.06 37.82 17 37.81C16.73 37.78 16.47 37.73 16.2 37.69C16.05 37.66 15.9 37.64 15.75 37.6C13.15 37.08 10.73 36.02 8.64 34.55C8.21 34.13 8.2 33.42 8.64 32.97L14.08 27.53C14.21 27.39 14.42 27.38 14.58 27.47C15.7 28.13 16.96 28.57 18.32 28.73C18.34 28.73 18.36 28.73 18.37 28.74C18.44 28.75 18.51 28.76 18.58 28.76C18.59 28.76 18.6 28.76 18.6 28.76C18.73 28.77 18.86 28.78 18.99 28.79C19.09 28.8 19.19 28.8 19.29 28.8C19.5 28.8 19.7 28.8 19.9 28.79C20.03 28.79 20.16 28.78 20.29 28.76C20.3 28.76 20.31 28.76 20.31 28.76C20.38 28.76 20.45 28.75 20.52 28.74C20.54 28.74 20.56 28.74 20.57 28.73C21.92 28.57 23.19 28.13 24.31 27.47C24.47 27.37 24.68 27.39 24.81 27.53L30.25 32.97C30.75 33.42 30.73 34.13 30.31 34.55Z" fill="#FF5E01"/>
<path d="M19.49 25.12C22.6767 25.12 25.26 22.568 25.26 19.42C25.26 16.272 22.6767 13.72 19.49 13.72C16.3033 13.72 13.72 16.272 13.72 19.42C13.72 22.568 16.3033 25.12 19.49 25.12Z" fill="#FF5E01"/>
</svg>
