<svg width="39" height="38" viewBox="0 0 39 38" fill="none" xmlns="http://www.w3.org/2000/svg">
<path d="M38.3 18.15C38.3 18.11 38.3 18.07 38.3 18.03C38.3 17.94 38.3 17.86 38.29 17.77C38.29 17.68 38.28 17.6 38.28 17.51C38.28 17.46 38.28 17.4 38.27 17.35C38.26 17.23 38.25 17.11 38.24 16.99C37.46 7.78 29.88 0.490003 20.47 0.0300026C20.31 0.0200026 20.16 0.0200021 20 0.0100021C19.89 0.0100021 19.78 0 19.66 0H19.52C19.37 0 19.22 2.13645e-06 19.07 0.0100021C18.91 0.0100021 18.75 0.0200026 18.6 0.0300026C9.36001 0.510003 1.63001 7.91 0.830009 16.99C0.820009 17.11 0.810011 17.23 0.800011 17.35C0.790011 17.4 0.790012 17.46 0.790012 17.51C0.780012 17.6 0.78001 17.68 0.78001 17.77C0.78001 17.86 0.770012 17.94 0.770012 18.03C0.770012 18.07 0.770012 18.11 0.770012 18.15C0.770012 18.23 0.76001 18.31 0.76001 18.39V18.56C0.76001 18.94 0.770011 19.31 0.800011 19.69C0.810011 19.8 0.810011 19.91 0.820011 20.03C0.830011 20.13 0.840012 20.23 0.840012 20.33C0.850012 20.47 0.870013 20.6 0.880013 20.73C0.920013 21.03 0.96001 21.32 1.01001 21.62C1.01001 21.63 1.01001 21.64 1.02001 21.65C1.04001 21.79 1.07001 21.93 1.10001 22.07C1.63001 24.79 2.75001 27.3 4.35001 29.46C4.39001 29.52 4.44001 29.57 4.49001 29.61C4.93001 30.03 5.65001 30.03 6.09001 29.59L11.52 24.15C11.66 24.01 11.67 23.81 11.57 23.64C10.99 22.76 10.56 21.77 10.31 20.72C10.29 20.65 10.27 20.57 10.26 20.5C10.23 20.36 10.2 20.23 10.18 20.09C10.18 20.07 10.17 20.05 10.17 20.02C10.16 19.95 10.15 19.88 10.14 19.82C10.13 19.74 10.12 19.67 10.11 19.59C10.11 19.56 10.1 19.54 10.1 19.51C10.09 19.43 10.08 19.34 10.08 19.26V19.25C10.06 19.13 10.06 19.02 10.05 18.9C10.05 18.78 10.04 18.67 10.04 18.55C10.04 18.44 10.04 18.33 10.05 18.21C10.05 18.06 10.06 17.9 10.08 17.75C10.48 13.37 14.36 9.55 18.8 9.2C18.8 9.2 18.8 9.2 18.81 9.2C18.89 9.19 18.97 9.19 19.05 9.18C19.36 9.16 19.68 9.16 20 9.18C20.01 9.18 20.02 9.18 20.03 9.18C20.11 9.18 20.19 9.19 20.27 9.2H20.28C24.91 9.55 28.62 13.18 29 17.75C29.01 17.9 29.02 18.05 29.03 18.21V18.22C29.03 18.33 29.04 18.44 29.04 18.56V18.65C29.04 18.74 29.04 18.82 29.03 18.91C29.03 19.02 29.02 19.14 29.01 19.25V19.26C29 19.34 29 19.43 28.99 19.51C28.99 19.54 28.99 19.56 28.98 19.59C28.97 19.67 28.96 19.74 28.95 19.82C28.94 19.89 28.93 19.96 28.92 20.02C28.92 20.04 28.91 20.07 28.91 20.09C28.89 20.23 28.86 20.36 28.83 20.5C28.81 20.57 28.8 20.65 28.78 20.72C27.92 24.24 25.03 27.02 21.43 27.75C22.5 27.54 23.51 27.15 24.42 26.61C24.58 26.51 24.79 26.53 24.92 26.67L30.36 32.11C30.81 32.56 30.79 33.27 30.36 33.69C31.98 32.56 33.41 31.18 34.59 29.61C36.25 27.41 37.43 24.85 37.97 22.07C38 21.93 38.02 21.79 38.05 21.65C38.05 21.64 38.06 21.63 38.06 21.62C38.11 21.33 38.15 21.03 38.19 20.73C38.21 20.6 38.22 20.46 38.23 20.33C38.24 20.23 38.25 20.13 38.25 20.03C38.26 19.92 38.27 19.8 38.27 19.69C38.28 19.46 38.29 19.24 38.3 19.01C38.3 18.97 38.3 18.94 38.3 18.9C38.3 18.79 38.3 18.67 38.3 18.56V18.55C38.31 18.41 38.31 18.28 38.3 18.15ZM21.42 27.74C21.41 27.74 21.4 27.74 21.38 27.75C21.39 27.75 21.41 27.74 21.42 27.74ZM21.38 27.75C21.28 27.77 21.17 27.79 21.07 27.81C21.18 27.79 21.28 27.77 21.38 27.75ZM21.07 27.8C20.94 27.82 20.8 27.84 20.67 27.86C20.81 27.84 20.94 27.83 21.07 27.8ZM8.88001 33.82C10.51 34.93 12.33 35.79 14.29 36.35C12.28 35.77 10.4 34.86 8.72001 33.68C8.77001 33.74 8.82001 33.78 8.88001 33.82ZM14.29 36.36C14.4 36.39 14.51 36.42 14.62 36.45C14.5 36.42 14.39 36.39 14.29 36.36ZM15.06 36.56C15.31 36.62 15.57 36.68 15.83 36.73C15.57 36.68 15.32 36.62 15.06 36.56Z" fill="#0558FF"/>
<path d="M30.36 33.68C28.26 35.15 25.85 36.21 23.25 36.73C23.1 36.76 22.95 36.79 22.8 36.82C22.54 36.87 22.27 36.91 22 36.94C21.94 36.95 21.88 36.96 21.82 36.96C21.7 36.98 21.58 36.99 21.46 37C21.4 37.01 21.33 37.01 21.26 37.02C21.09 37.04 20.93 37.05 20.76 37.06C20.68 37.06 20.6 37.07 20.52 37.07C20.5 37.07 20.48 37.07 20.46 37.07C20.34 37.07 20.23 37.08 20.11 37.08C19.75 37.09 19.39 37.09 19.02 37.08C18.99 37.08 18.97 37.08 18.94 37.08C18.82 37.08 18.7 37.07 18.59 37.07C18.57 37.07 18.55 37.07 18.53 37.07C18.45 37.07 18.37 37.06 18.29 37.06C18.12 37.05 17.96 37.04 17.79 37.02C17.72 37.01 17.66 37.01 17.59 37C17.47 36.99 17.35 36.98 17.23 36.96C17.17 36.95 17.11 36.95 17.05 36.94C16.78 36.91 16.52 36.86 16.25 36.82C16.1 36.79 15.95 36.77 15.8 36.73C13.2 36.21 10.78 35.15 8.69003 33.68C8.26003 33.26 8.25003 32.55 8.69003 32.1L14.13 26.66C14.26 26.52 14.47 26.51 14.63 26.6C15.75 27.26 17.01 27.7 18.37 27.86C18.39 27.86 18.41 27.86 18.42 27.87C18.49 27.88 18.56 27.89 18.63 27.89C18.64 27.89 18.65 27.89 18.65 27.89C18.78 27.9 18.91 27.91 19.04 27.92C19.14 27.93 19.24 27.93 19.34 27.93C19.55 27.93 19.75 27.93 19.95 27.92C20.08 27.92 20.21 27.91 20.34 27.89C20.35 27.89 20.36 27.89 20.36 27.89C20.43 27.89 20.5 27.88 20.57 27.87C20.59 27.87 20.61 27.87 20.62 27.86C21.97 27.7 23.24 27.26 24.36 26.6C24.52 26.5 24.73 26.52 24.86 26.66L30.3 32.1C30.8 32.55 30.78 33.26 30.36 33.68Z" fill="#FF5E01"/>
<path d="M19.54 24.25C22.7267 24.25 25.31 21.698 25.31 18.55C25.31 15.402 22.7267 12.85 19.54 12.85C16.3533 12.85 13.77 15.402 13.77 18.55C13.77 21.698 16.3533 24.25 19.54 24.25Z" fill="#FF5E01"/>
</svg>
