<?xml version="1.0" encoding="utf-8"?>
<!-- Generator: Adobe Illustrator 25.2.1, SVG Export Plug-In . SVG Version: 6.00 Build 0)  -->
<svg version="1.1" id="Camada_1" xmlns="http://www.w3.org/2000/svg" xmlns:xlink="http://www.w3.org/1999/xlink" x="0px" y="0px"
	 viewBox="0 0 1080 1080" style="enable-background:new 0 0 1080 1080;" xml:space="preserve">
<style type="text/css">
	.st0{fill:#E65320;}
</style>
<g>
	
		<ellipse transform="matrix(0.9993 -0.038 0.038 0.9993 -23.444 2.2861)" class="st0" cx="48.35" cy="617.19" rx="25.78" ry="25.78"/>
	<circle class="st0" cx="74.13" cy="591.41" r="25.78"/>
	
		<ellipse transform="matrix(0.9834 -0.1813 0.1813 0.9834 -100.8789 27.4834)" class="st0" cx="99.92" cy="565.62" rx="25.78" ry="25.78"/>
	
		<ellipse transform="matrix(0.867 -0.4983 0.4983 0.867 -249.7353 92.4677)" class="st0" cx="48.35" cy="514.06" rx="25.78" ry="25.78"/>
	<path class="st0" d="M99.92,488.28h-2.17v-0.1C98.47,488.24,99.19,488.28,99.92,488.28z"/>
	<path class="st0" d="M177.24,463.66c-0.61,13.91-12.64,24.62-26.56,24.62l-50.76,0c-0.72,0-1.45-0.03-2.17-0.1v0.1h2.17
		c-13.55,0-24.67,10.46-25.7,23.75c-0.01,0.1-0.15,0.1-0.16,0c-0.98-12.62-11.05-22.69-23.67-23.67c-0.1-0.01-0.1-0.15,0-0.16
		c13.29-1.04,23.75-12.15,23.75-25.7c0-13.51,10.4-24.59,23.61-25.68c0.72-0.07,1.45-0.1,2.17-0.1l51.56,0
		C166.11,436.71,177.89,448.89,177.24,463.66z"/>
	<g>
		<g>
			<path d="M244.72,590.08v-91.69h-16.73V477.3h16.73c0-27.51,15.97-41.26,47.91-41.26v24.07c-3.82,0-6.92,0.27-9.28,0.8
				c-2.37,0.54-4.24,1.49-5.62,2.86c-1.38,1.38-2.33,3.17-2.87,5.39c-0.54,2.22-0.8,4.93-0.8,8.14h19.25v21.09h-19.25v91.69H244.72z
				"/>
			<path d="M300.42,590.08V477.3h29.8v112.78H300.42z"/>
			<path d="M421.9,574.95c-2.14,5.04-6,8.98-11.58,11.81c-5.58,2.83-12.03,4.24-19.37,4.24c-9.32,0-17.16-1.64-23.5-4.93
				c-6.34-3.28-11.46-7.6-15.36-12.95c-3.9-5.35-6.73-11.54-8.48-18.57c-1.76-7.03-2.64-14.21-2.64-21.55
				c0-8.71,1.3-16.69,3.9-23.95c2.6-7.26,6.11-13.45,10.54-18.57c4.43-5.12,9.63-9.09,15.59-11.92c5.96-2.83,12.38-4.24,19.25-4.24
				c14.06,0,24.6,5.66,31.63,16.96V477.3h29.8v113.92c0,8.56-1.46,16.08-4.35,22.58c-2.9,6.49-6.88,11.92-11.92,16.27
				c-5.04,4.36-11,7.68-17.88,9.97c-6.88,2.29-14.21,3.44-22.01,3.44c-7.79,0-15.05-1.11-21.78-3.32
				c-6.73-2.22-12.49-5.35-17.31-9.4c-4.81-4.05-8.6-8.98-11.35-14.78c-2.75-5.81-4.13-12.38-4.13-19.71h27.74
				c0,6.88,2.25,12.18,6.76,15.93c4.5,3.74,10.5,5.62,17.99,5.62c7.94,0,14.67-2.18,20.17-6.53c5.5-4.35,8.25-10.28,8.25-17.76
				V574.95z M397.38,567.61c7.34,0,13.41-2.79,18.22-8.37c4.81-5.58,7.22-13.18,7.22-22.81c0-24.14-8.48-36.22-25.44-36.22
				c-16.96,0-25.44,11.46-25.44,34.38c0,10.09,2.41,18.11,7.22,24.07C383.97,564.63,390.04,567.61,397.38,567.61z"/>
			<path d="M537.43,590.08v-15.82c-7.64,12.53-19.33,18.8-35.07,18.8c-5.65,0-10.81-1-15.47-2.98c-4.66-1.98-8.67-4.81-12.03-8.48
				c-3.36-3.67-6-8.02-7.91-13.07c-1.91-5.04-2.87-10.69-2.87-16.96V477.3h29.8v69.68c0,14.06,6.34,21.09,19.03,21.09
				c7.64,0,13.41-2.41,17.3-7.22c3.9-4.81,5.85-10.96,5.85-18.45v-65.1h29.57v112.78H537.43z"/>
			<path d="M578,590.08V477.3h27.96v13.52c2.44-3.82,5-6.8,7.68-8.94c2.67-2.14,5.42-3.78,8.25-4.93c2.82-1.15,5.69-1.87,8.6-2.18
				c2.9-0.3,5.88-0.46,8.94-0.46h3.9v30.49c-2.75-0.46-5.5-0.69-8.25-0.69c-18.19,0-27.28,9.09-27.28,27.28v58.68H578z"/>
			<path d="M717.14,590.08c-0.92-2.9-1.53-6.26-1.83-10.09c-3.52,3.98-8.18,7.15-13.98,9.51c-5.81,2.37-12.53,3.55-20.17,3.55
				c-12.99,0-22.5-2.87-28.54-8.6c-6.04-5.73-9.05-13.18-9.05-22.35c0-8.1,1.3-14.56,3.9-19.37c2.6-4.81,6.19-8.6,10.77-11.35
				c4.59-2.75,10.05-4.77,16.39-6.07c6.34-1.3,13.26-2.48,20.75-3.55c7.48-1.07,12.53-2.48,15.13-4.24c2.6-1.75,3.9-4.62,3.9-8.6
				c0-3.67-1.72-6.53-5.16-8.6s-8.06-3.09-13.87-3.09c-6.88,0-11.81,1.53-14.79,4.58c-2.98,3.06-4.85,7.11-5.61,12.15h-27.74
				c0.15-5.81,1.11-11.15,2.87-16.05c1.76-4.89,4.59-9.09,8.48-12.61c3.9-3.51,8.97-6.22,15.24-8.14c6.27-1.91,13.9-2.86,22.92-2.86
				c8.86,0,16.39,1,22.58,2.98c6.19,1.99,11.15,4.85,14.9,8.6c3.74,3.75,6.46,8.41,8.14,13.98c1.68,5.58,2.52,11.88,2.52,18.91
				v71.29H717.14z M715.07,534.83c-1.53,1.53-3.75,2.75-6.65,3.67c-2.9,0.92-7.11,1.91-12.61,2.98c-8.56,1.68-14.44,3.82-17.65,6.42
				c-3.21,2.6-4.81,6.34-4.81,11.23c0,8.41,4.81,12.61,14.44,12.61c3.82,0,7.37-0.65,10.66-1.95c3.28-1.3,6.11-3.06,8.48-5.27
				c2.37-2.21,4.28-4.81,5.73-7.79c1.45-2.98,2.18-6.15,2.18-9.51L715.07,534.83z"/>
			<path d="M821.2,515.81h27.74v32.09c0,5.96-0.88,11.65-2.64,17.08c-1.76,5.43-4.51,10.24-8.25,14.44
				c-3.75,4.2-8.48,7.53-14.21,9.97c-5.73,2.44-12.57,3.67-20.52,3.67c-8.25,0-15.28-1.23-21.09-3.67
				c-5.81-2.44-10.58-5.73-14.33-9.86c-3.75-4.13-6.46-8.94-8.14-14.44c-1.68-5.5-2.52-11.31-2.52-17.42V446.81h29.34v30.49h62.35
				v21.09h-62.35v46.3c0,7.18,1.34,12.72,4.01,16.62c2.67,3.9,7.07,5.84,13.18,5.84c5.96,0,10.35-1.91,13.18-5.73
				c2.83-3.82,4.24-9.24,4.24-16.27V515.81z"/>
			<path d="M860.85,590.08V477.3h29.8v112.78H860.85z"/>
		</g>
	</g>
	
		<ellipse transform="matrix(0.9921 -0.1255 0.1255 0.9921 -53.9462 43.3495)" class="st0" cx="317.14" cy="449.91" rx="14.33" ry="14.33"/>
	
		<ellipse transform="matrix(0.9921 -0.1255 0.1255 0.9921 -49.5168 113.6714)" class="st0" cx="877.58" cy="449.91" rx="14.33" ry="14.33"/>
	<g>
		<g>
			<path d="M921.57,574.8h-0.67v-11.55c-0.8,4.41-2.54,7.58-5.21,9.52s-5.54,2.9-8.61,2.9c-4.27,0-7.7-1.5-10.28-4.51
				c-2.58-3-3.87-7.31-3.87-12.92s1.27-9.87,3.81-12.79c2.54-2.91,5.99-4.37,10.35-4.37c3.03,0,5.89,1.01,8.58,3.04
				c2.69,2.03,4.44,5.15,5.24,9.38v-23.57h0.67V574.8z M907.08,575.01c4.05,0,7.37-1.46,9.95-4.37c2.58-2.92,3.87-7,3.87-12.25
				c0-2.09-0.28-4.1-0.83-6.01c-0.56-1.91-1.37-3.68-2.44-5.31c-1.07-1.62-2.52-2.92-4.34-3.87c-1.83-0.96-3.9-1.44-6.21-1.44
				c-4.14,0-7.42,1.4-9.85,4.21c-2.43,2.8-3.64,6.9-3.64,12.28c0,5.43,1.22,9.58,3.67,12.45
				C899.71,573.57,902.98,575.01,907.08,575.01z"/>
			<path d="M953.28,565.12h0.8c-0.89,3.34-2.47,5.93-4.74,7.78c-2.27,1.85-5.01,2.77-8.21,2.77c-9.88,0-14.82-5.97-14.82-17.89
				c0-5.12,1.27-9.18,3.81-12.19c2.54-3.01,6.05-4.51,10.55-4.51c4.41,0,7.82,1.57,10.25,4.71c2.43,3.14,3.64,7.27,3.64,12.39
				h-27.58c0.13,11.22,4.85,16.83,14.16,16.83c2.98,0,5.53-0.86,7.64-2.57C950.89,570.72,952.39,568.28,953.28,565.12z
				 M926.98,557.51h26.91c-0.09-4.81-1.27-8.63-3.54-11.48c-2.27-2.85-5.5-4.27-9.68-4.27c-4.32,0-7.68,1.41-10.08,4.24
				C928.18,548.82,926.98,552.66,926.98,557.51z"/>
			<path d="M984.4,551.9h-0.6c-0.22-3.47-1.25-6.03-3.07-7.68c-1.83-1.65-4.79-2.47-8.88-2.47c-4.27,0-7.34,0.65-9.21,1.94
				c-1.87,1.29-2.8,3.18-2.8,5.67c0,2.54,0.79,4.3,2.37,5.28c1.58,0.98,4.77,1.85,9.58,2.6c0.49,0.09,1.29,0.19,2.4,0.3
				c1.11,0.11,1.94,0.2,2.47,0.27c0.53,0.07,1.27,0.2,2.2,0.4c0.93,0.2,1.65,0.42,2.14,0.67c0.49,0.24,1.05,0.58,1.67,1
				c0.62,0.42,1.1,0.9,1.44,1.44c0.33,0.53,0.61,1.2,0.83,2c0.22,0.8,0.33,1.71,0.33,2.74c0,2.8-1.1,5.11-3.31,6.91
				c-2.2,1.8-5.46,2.7-9.78,2.7c-4.45,0-7.89-1.02-10.32-3.07c-2.43-2.05-3.68-4.83-3.77-8.34h0.67c0.09,3.38,1.31,6.02,3.67,7.91
				c2.36,1.89,5.61,2.84,9.75,2.84c4.09,0,7.19-0.83,9.28-2.5c2.09-1.67,3.14-3.81,3.14-6.44c0-1.07-0.09-1.98-0.27-2.74
				c-0.18-0.76-0.51-1.4-1-1.94c-0.49-0.53-0.95-0.97-1.37-1.3c-0.42-0.33-1.1-0.61-2.04-0.83c-0.93-0.22-1.7-0.39-2.3-0.5
				c-0.6-0.11-1.56-0.24-2.87-0.4c-1.31-0.16-2.33-0.3-3.04-0.43c-4.99-0.76-8.32-1.69-10.02-2.8c-1.69-1.11-2.54-3.03-2.54-5.74
				c0-2.71,0.99-4.77,2.97-6.18c1.98-1.4,5.22-2.1,9.72-2.1c4.41,0,7.56,0.9,9.45,2.7C983.18,545.59,984.22,548.3,984.4,551.9z"/>
			<path d="M990.27,538.02h-0.67v-8.08h0.67V538.02z M990.27,574.8h-0.67v-32.85h0.67V574.8z"/>
			<path d="M1023.66,575.14v-12.29c-0.45,2.18-1.18,4.1-2.2,5.74c-1.02,1.65-2.21,2.93-3.57,3.84c-1.36,0.91-2.73,1.58-4.11,2
				c-1.38,0.42-2.76,0.63-4.14,0.63c-4.41,0-7.9-1.44-10.48-4.31s-3.87-7.06-3.87-12.59s1.3-9.75,3.91-12.69
				c2.6-2.94,6.09-4.41,10.45-4.41c1.42,0,2.8,0.2,4.14,0.6c1.34,0.4,2.69,1.04,4.07,1.9c1.38,0.87,2.58,2.14,3.61,3.81
				c1.02,1.67,1.76,3.64,2.2,5.91v-11.35h0.67v33.19c0,4.76-1.38,8.49-4.14,11.18c-2.76,2.69-6.28,4.04-10.55,4.04
				c-4.23,0-7.68-1.25-10.35-3.74c-2.67-2.49-4.01-5.83-4.01-10.02h0.67c0.04,4.01,1.37,7.19,3.97,9.55
				c2.6,2.36,5.84,3.54,9.72,3.54c4.05,0,7.4-1.28,10.05-3.84C1022.33,583.29,1023.66,579.72,1023.66,575.14z M1009.63,574.4
				c4.54,0,8.01-1.62,10.42-4.87c2.4-3.25,3.6-7.05,3.6-11.42c0-5.21-1.3-9.23-3.91-12.08c-2.6-2.85-5.98-4.27-10.12-4.27
				c-4.14,0-7.46,1.41-9.95,4.24c-2.49,2.83-3.74,6.89-3.74,12.19c0,5.34,1.22,9.38,3.67,12.12
				C1002.07,573.04,1005.41,574.4,1009.63,574.4z"/>
			<path d="M1056.64,574.8h-0.67v-21.23c0-4.45-0.97-7.53-2.9-9.25c-1.94-1.71-4.8-2.57-8.58-2.57c-4.5,0-7.96,1.66-10.38,4.98
				c-2.43,3.32-3.64,7.2-3.64,11.65v16.42h-0.67v-32.85h0.67v11.55c0.8-4.27,2.55-7.41,5.24-9.41c2.69-2,5.62-3.01,8.78-3.01
				c3.96,0,6.98,0.9,9.05,2.7c2.07,1.8,3.1,5.06,3.1,9.78V574.8z"/>
		</g>
	</g>
</g>
</svg>
